<svg width="1000" height="330" viewBox="0 0 1000 330" fill="none" xmlns="http://www.w3.org/2000/svg">
<defs>
  <linearGradient id="bg" x1="0" y1="0" x2="1000" y2="330">
    <stop stop-color="#0d1117"/>
    <stop offset="1" stop-color="#0f141b"/>
  </linearGradient>
</defs>
<style>
  .title { font:700 23px ui-monospace,SFMono-Regular,Menlo,Consolas,monospace; fill:#f0f6fc; }
  .note { font:14px ui-monospace,SFMono-Regular,Menlo,Consolas,monospace; fill:#39d353; }
  .month { font:12px ui-monospace,SFMono-Regular,Menlo,Consolas,monospace; fill:#8b949e; }
  .stat { font:13px ui-monospace,SFMono-Regular,Menlo,Consolas,monospace; fill:#8b949e; }
  .wave { stroke:#39d353; stroke-width:2.4; fill:none; opacity:.85; }
  .dot { fill:#c9d1d9; }
</style>
<rect x="1" y="1" width="998" height="328" rx="20" fill="url(#bg)" stroke="#30363d"/>
<text x="36" y="42" class="title">&gt; GitHub Activity</text>
<text x="720" y="42" class="note">// consistent progress compounds</text>
<text x="36" y="66" class="stat">152 contributions in the last year</text>
<text x="42" y="78" class="month">Oct</text><text x="106" y="78" class="month">Nov</text><text x="186" y="78" class="month">Dec</text><text x="250" y="78" class="month">Jan</text><text x="330" y="78" class="month">Feb</text><text x="394" y="78" class="month">Mar</text><text x="458" y="78" class="month">Apr</text><text x="522" y="78" class="month">May</text><text x="602" y="78" class="month">Jun</text><text x="666" y="78" class="month">Jul</text><text x="730" y="78" class="month">Aug</text><text x="810" y="78" class="month">Sep</text>
<rect x="42" y="92" width="11" height="11" rx="2.5" fill="#161b22" /><rect x="42" y="108" width="11" height="11" rx="2.5" fill="#161b22" /><rect x="42" y="124" width="11" height="11" rx="2.5" fill="#161b22" /><rect x="42" y="140" width="11" height="11" rx="2.5" fill="#161b22" /><rect x="42" y="156" width="11" height="11" rx="2.5" fill="#161b22" /><rect x="42" y="172" width="11" height="11" rx="2.5" fill="#161b22" /><rect x="42" y="188" width="11" height="11" rx="2.5" fill="#161b22" /><rect x="58" y="92" width="11" height="11" rx="2.5" fill="#161b22" /><rect x="58" y="108" width="11" height="11" rx="2.5" fill="#161b22" /><rect x="58" y="124" width="11" height="11" rx="2.5" fill="#161b22" /><rect x="58" y="140" width="11" height="11" rx="2.5" fill="#161b22" /><rect x="58" y="156" width="11" height="11" rx="2.5" fill="#161b22" /><rect x="58" y="172" width="11" height="11" rx="2.5" fill="#161b22" /><rect x="58" y="188" width="11" height="11" rx="2.5" fill="#161b22" /><rect x="74" y="92" width="11" height="11" rx="2.5" fill="#161b22" /><rect x="74" y="108" width="11" height="11" rx="2.5" fill="#161b22" /><rect x="74" y="124" width="11" height="11" rx="2.5" fill="#161b22" /><rect x="74" y="140" width="11" height="11" rx="2.5" fill="#161b22" /><rect x="74" y="156" width="11" height="11" rx="2.5" fill="#161b22" /><rect x="74" y="172" width="11" height="11" rx="2.5" fill="#161b22" /><rect x="74" y="188" width="11" height="11" rx="2.5" fill="#161b22" /><rect x="90" y="92" width="11" height="11" rx="2.5" fill="#161b22" /><rect x="90" y="108" width="11" height="11" rx="2.5" fill="#161b22" /><rect x="90" y="124" width="11" height="11" rx="2.5" fill="#161b22" /><rect x="90" y="140" width="11" height="11" rx="2.5" fill="#161b22" /><rect x="90" y="156" width="11" height="11" rx="2.5" fill="#161b22" /><rect x="90" y="172" width="11" height="11" rx="2.5" fill="#161b22" /><rect x="90" y="188" width="11" height="11" rx="2.5" fill="#161b22" /><rect x="106" y="92" width="11" height="11" rx="2.5" fill="#161b22" /><rect x="106" y="108" width="11" height="11" rx="2.5" fill="#161b22" /><rect x="106" y="124" width="11" height="11" rx="2.5" fill="#161b22" /><rect x="106" y="140" width="11" height="11" rx="2.5" fill="#161b22" /><rect x="106" y="156" width="11" height="11" rx="2.5" fill="#161b22" /><rect x="106" y="172" width="11" height="11" rx="2.5" fill="#161b22" /><rect x="106" y="188" width="11" height="11" rx="2.5" fill="#161b22" /><rect x="122" y="92" width="11" height="11" rx="2.5" fill="#161b22" /><rect x="122" y="108" width="11" height="11" rx="2.5" fill="#161b22" /><rect x="122" y="124" width="11" height="11" rx="2.5" fill="#161b22" /><rect x="122" y="140" width="11" height="11" rx="2.5" fill="#161b22" /><rect x="122" y="156" width="11" height="11" rx="2.5" fill="#161b22" /><rect x="122" y="172" width="11" height="11" rx="2.5" fill="#161b22" /><rect x="122" y="188" width="11" height="11" rx="2.5" fill="#161b22" /><rect x="138" y="92" width="11" height="11" rx="2.5" fill="#161b22" /><rect x="138" y="108" width="11" height="11" rx="2.5" fill="#161b22" /><rect x="138" y="124" width="11" height="11" rx="2.5" fill="#161b22" /><rect x="138" y="140" width="11" height="11" rx="2.5" fill="#161b22" /><rect x="138" y="156" width="11" height="11" rx="2.5" fill="#161b22" /><rect x="138" y="172" width="11" height="11" rx="2.5" fill="#161b22" /><rect x="138" y="188" width="11" height="11" rx="2.5" fill="#161b22" /><rect x="154" y="92" width="11" height="11" rx="2.5" fill="#161b22" /><rect x="154" y="108" width="11" height="11" rx="2.5" fill="#161b22" /><rect x="154" y="124" width="11" height="11" rx="2.5" fill="#161b22" /><rect x="154" y="140" width="11" height="11" rx="2.5" fill="#161b22" /><rect x="154" y="156" width="11" height="11" rx="2.5" fill="#161b22" /><rect x="154" y="172" width="11" height="11" rx="2.5" fill="#161b22" /><rect x="154" y="188" width="11" height="11" rx="2.5" fill="#161b22" /><rect x="170" y="92" width="11" height="11" rx="2.5" fill="#161b22" /><rect x="170" y="108" width="11" height="11" rx="2.5" fill="#161b22" /><rect x="170" y="124" width="11" height="11" rx="2.5" fill="#161b22" /><rect x="170" y="140" width="11" height="11" rx="2.5" fill="#161b22" /><rect x="170" y="156" width="11" height="11" rx="2.5" fill="#161b22" /><rect x="170" y="172" width="11" height="11" rx="2.5" fill="#161b22" /><rect x="170" y="188" width="11" height="11" rx="2.5" fill="#161b22" /><rect x="186" y="92" width="11" height="11" rx="2.5" fill="#161b22" /><rect x="186" y="108" width="11" height="11" rx="2.5" fill="#161b22" /><rect x="186" y="124" width="11" height="11" rx="2.5" fill="#161b22" /><rect x="186" y="140" width="11" height="11" rx="2.5" fill="#161b22" /><rect x="186" y="156" width="11" height="11" rx="2.5" fill="#161b22" /><rect x="186" y="172" width="11" height="11" rx="2.5" fill="#161b22" /><rect x="186" y="188" width="11" height="11" rx="2.5" fill="#161b22" /><rect x="202" y="92" width="11" height="11" rx="2.5" fill="#161b22" /><rect x="202" y="108" width="11" height="11" rx="2.5" fill="#161b22" /><rect x="202" y="124" width="11" height="11" rx="2.5" fill="#161b22" /><rect x="202" y="140" width="11" height="11" rx="2.5" fill="#161b22" /><rect x="202" y="156" width="11" height="11" rx="2.5" fill="#161b22" /><rect x="202" y="172" width="11" height="11" rx="2.5" fill="#161b22" /><rect x="202" y="188" width="11" height="11" rx="2.5" fill="#161b22" /><rect x="218" y="92" width="11" height="11" rx="2.5" fill="#161b22" /><rect x="218" y="108" width="11" height="11" rx="2.5" fill="#161b22" /><rect x="218" y="124" width="11" height="11" rx="2.5" fill="#161b22" /><rect x="218" y="140" width="11" height="11" rx="2.5" fill="#161b22" /><rect x="218" y="156" width="11" height="11" rx="2.5" fill="#161b22" /><rect x="218" y="172" width="11" height="11" rx="2.5" fill="#161b22" /><rect x="218" y="188" width="11" height="11" rx="2.5" fill="#161b22" /><rect x="234" y="92" width="11" height="11" rx="2.5" fill="#161b22" /><rect x="234" y="108" width="11" height="11" rx="2.5" fill="#161b22" /><rect x="234" y="124" width="11" height="11" rx="2.5" fill="#161b22" /><rect x="234" y="140" width="11" height="11" rx="2.5" fill="#161b22" /><rect x="234" y="156" width="11" height="11" rx="2.5" fill="#161b22" /><rect x="234" y="172" width="11" height="11" rx="2.5" fill="#161b22" /><rect x="234" y="188" width="11" height="11" rx="2.5" fill="#161b22" /><rect x="250" y="92" width="11" height="11" rx="2.5" fill="#161b22" /><rect x="250" y="108" width="11" height="11" rx="2.5" fill="#161b22" /><rect x="250" y="124" width="11" height="11" rx="2.5" fill="#161b22" /><rect x="250" y="140" width="11" height="11" rx="2.5" fill="#161b22" /><rect x="250" y="156" width="11" height="11" rx="2.5" fill="#161b22" /><rect x="250" y="172" width="11" height="11" rx="2.5" fill="#161b22" /><rect x="250" y="188" width="11" height="11" rx="2.5" fill="#161b22" /><rect x="266" y="92" width="11" height="11" rx="2.5" fill="#161b22" /><rect x="266" y="108" width="11" height="11" rx="2.5" fill="#161b22" /><rect x="266" y="124" width="11" height="11" rx="2.5" fill="#161b22" /><rect x="266" y="140" width="11" height="11" rx="2.5" fill="#161b22" /><rect x="266" y="156" width="11" height="11" rx="2.5" fill="#161b22" /><rect x="266" y="172" width="11" height="11" rx="2.5" fill="#161b22" /><rect x="266" y="188" width="11" height="11" rx="2.5" fill="#161b22" /><rect x="282" y="92" width="11" height="11" rx="2.5" fill="#161b22" /><rect x="282" y="108" width="11" height="11" rx="2.5" fill="#161b22" /><rect x="282" y="124" width="11" height="11" rx="2.5" fill="#161b22" /><rect x="282" y="140" width="11" height="11" rx="2.5" fill="#161b22" /><rect x="282" y="156" width="11" height="11" rx="2.5" fill="#161b22" /><rect x="282" y="172" width="11" height="11" rx="2.5" fill="#161b22" /><rect x="282" y="188" width="11" height="11" rx="2.5" fill="#161b22" /><rect x="298" y="92" width="11" height="11" rx="2.5" fill="#161b22" /><rect x="298" y="108" width="11" height="11" rx="2.5" fill="#161b22" /><rect x="298" y="124" width="11" height="11" rx="2.5" fill="#161b22" /><rect x="298" y="140" width="11" height="11" rx="2.5" fill="#161b22" /><rect x="298" y="156" width="11" height="11" rx="2.5" fill="#161b22" /><rect x="298" y="172" width="11" height="11" rx="2.5" fill="#161b22" /><rect x="298" y="188" width="11" height="11" rx="2.5" fill="#161b22" /><rect x="314" y="92" width="11" height="11" rx="2.5" fill="#161b22" /><rect x="314" y="108" width="11" height="11" rx="2.5" fill="#161b22" /><rect x="314" y="124" width="11" height="11" rx="2.5" fill="#161b22" /><rect x="314" y="140" width="11" height="11" rx="2.5" fill="#161b22" /><rect x="314" y="156" width="11" height="11" rx="2.5" fill="#161b22" /><rect x="314" y="172" width="11" height="11" rx="2.5" fill="#161b22" /><rect x="314" y="188" width="11" height="11" rx="2.5" fill="#161b22" /><rect x="330" y="92" width="11" height="11" rx="2.5" fill="#161b22" /><rect x="330" y="108" width="11" height="11" rx="2.5" fill="#161b22" /><rect x="330" y="124" width="11" height="11" rx="2.5" fill="#161b22" /><rect x="330" y="140" width="11" height="11" rx="2.5" fill="#161b22" /><rect x="330" y="156" width="11" height="11" rx="2.5" fill="#161b22" /><rect x="330" y="172" width="11" height="11" rx="2.5" fill="#161b22" /><rect x="330" y="188" width="11" height="11" rx="2.5" fill="#161b22" /><rect x="346" y="92" width="11" height="11" rx="2.5" fill="#161b22" /><rect x="346" y="108" width="11" height="11" rx="2.5" fill="#161b22" /><rect x="346" y="124" width="11" height="11" rx="2.5" fill="#161b22" /><rect x="346" y="140" width="11" height="11" rx="2.5" fill="#161b22" /><rect x="346" y="156" width="11" height="11" rx="2.5" fill="#161b22" /><rect x="346" y="172" width="11" height="11" rx="2.5" fill="#161b22" /><rect x="346" y="188" width="11" height="11" rx="2.5" fill="#161b22" /><rect x="362" y="92" width="11" height="11" rx="2.5" fill="#161b22" /><rect x="362" y="108" width="11" height="11" rx="2.5" fill="#161b22" /><rect x="362" y="124" width="11" height="11" rx="2.5" fill="#161b22" /><rect x="362" y="140" width="11" height="11" rx="2.5" fill="#161b22" /><rect x="362" y="156" width="11" height="11" rx="2.5" fill="#161b22" /><rect x="362" y="172" width="11" height="11" rx="2.5" fill="#161b22" /><rect x="362" y="188" width="11" height="11" rx="2.5" fill="#161b22" /><rect x="378" y="92" width="11" height="11" rx="2.5" fill="#161b22" /><rect x="378" y="108" width="11" height="11" rx="2.5" fill="#161b22" /><rect x="378" y="124" width="11" height="11" rx="2.5" fill="#161b22" /><rect x="378" y="140" width="11" height="11" rx="2.5" fill="#161b22" /><rect x="378" y="156" width="11" height="11" rx="2.5" fill="#161b22" /><rect x="378" y="172" width="11" height="11" rx="2.5" fill="#161b22" /><rect x="378" y="188" width="11" height="11" rx="2.5" fill="#161b22" /><rect x="394" y="92" width="11" height="11" rx="2.5" fill="#161b22" /><rect x="394" y="108" width="11" height="11" rx="2.5" fill="#161b22" /><rect x="394" y="124" width="11" height="11" rx="2.5" fill="#161b22" /><rect x="394" y="140" width="11" height="11" rx="2.5" fill="#161b22" /><rect x="394" y="156" width="11" height="11" rx="2.5" fill="#161b22" /><rect x="394" y="172" width="11" height="11" rx="2.5" fill="#161b22" /><rect x="394" y="188" width="11" height="11" rx="2.5" fill="#161b22" /><rect x="410" y="92" width="11" height="11" rx="2.5" fill="#161b22" /><rect x="410" y="108" width="11" height="11" rx="2.5" fill="#161b22" /><rect x="410" y="124" width="11" height="11" rx="2.5" fill="#161b22" /><rect x="410" y="140" width="11" height="11" rx="2.5" fill="#161b22" /><rect x="410" y="156" width="11" height="11" rx="2.5" fill="#161b22" /><rect x="410" y="172" width="11" height="11" rx="2.5" fill="#161b22" /><rect x="410" y="188" width="11" height="11" rx="2.5" fill="#161b22" /><rect x="426" y="92" width="11" height="11" rx="2.5" fill="#161b22" /><rect x="426" y="108" width="11" height="11" rx="2.5" fill="#161b22" /><rect x="426" y="124" width="11" height="11" rx="2.5" fill="#161b22" /><rect x="426" y="140" width="11" height="11" rx="2.5" fill="#161b22" /><rect x="426" y="156" width="11" height="11" rx="2.5" fill="#161b22" /><rect x="426" y="172" width="11" height="11" rx="2.5" fill="#161b22" /><rect x="426" y="188" width="11" height="11" rx="2.5" fill="#161b22" /><rect x="442" y="92" width="11" height="11" rx="2.5" fill="#161b22" /><rect x="442" y="108" width="11" height="11" rx="2.5" fill="#161b22" /><rect x="442" y="124" width="11" height="11" rx="2.5" fill="#161b22" /><rect x="442" y="140" width="11" height="11" rx="2.5" fill="#161b22" /><rect x="442" y="156" width="11" height="11" rx="2.5" fill="#161b22" /><rect x="442" y="172" width="11" height="11" rx="2.5" fill="#161b22" /><rect x="442" y="188" width="11" height="11" rx="2.5" fill="#161b22" /><rect x="458" y="92" width="11" height="11" rx="2.5" fill="#161b22" /><rect x="458" y="108" width="11" height="11" rx="2.5" fill="#161b22" /><rect x="458" y="124" width="11" height="11" rx="2.5" fill="#161b22" /><rect x="458" y="140" width="11" height="11" rx="2.5" fill="#161b22" /><rect x="458" y="156" width="11" height="11" rx="2.5" fill="#161b22" /><rect x="458" y="172" width="11" height="11" rx="2.5" fill="#161b22" /><rect x="458" y="188" width="11" height="11" rx="2.5" fill="#161b22" /><rect x="474" y="92" width="11" height="11" rx="2.5" fill="#161b22" /><rect x="474" y="108" width="11" height="11" rx="2.5" fill="#161b22" /><rect x="474" y="124" width="11" height="11" rx="2.5" fill="#161b22" /><rect x="474" y="140" width="11" height="11" rx="2.5" fill="#161b22" /><rect x="474" y="156" width="11" height="11" rx="2.5" fill="#161b22" /><rect x="474" y="172" width="11" height="11" rx="2.5" fill="#161b22" /><rect x="474" y="188" width="11" height="11" rx="2.5" fill="#161b22" /><rect x="490" y="92" width="11" height="11" rx="2.5" fill="#161b22" /><rect x="490" y="108" width="11" height="11" rx="2.5" fill="#161b22" /><rect x="490" y="124" width="11" height="11" rx="2.5" fill="#161b22" /><rect x="490" y="140" width="11" height="11" rx="2.5" fill="#161b22" /><rect x="490" y="156" width="11" height="11" rx="2.5" fill="#161b22" /><rect x="490" y="172" width="11" height="11" rx="2.5" fill="#161b22" /><rect x="490" y="188" width="11" height="11" rx="2.5" fill="#161b22" /><rect x="506" y="92" width="11" height="11" rx="2.5" fill="#161b22" /><rect x="506" y="108" width="11" height="11" rx="2.5" fill="#161b22" /><rect x="506" y="124" width="11" height="11" rx="2.5" fill="#161b22" /><rect x="506" y="140" width="11" height="11" rx="2.5" fill="#161b22" /><rect x="506" y="156" width="11" height="11" rx="2.5" fill="#161b22" /><rect x="506" y="172" width="11" height="11" rx="2.5" fill="#161b22" /><rect x="506" y="188" width="11" height="11" rx="2.5" fill="#161b22" /><rect x="522" y="92" width="11" height="11" rx="2.5" fill="#161b22" /><rect x="522" y="108" width="11" height="11" rx="2.5" fill="#161b22" /><rect x="522" y="124" width="11" height="11" rx="2.5" fill="#161b22" /><rect x="522" y="140" width="11" height="11" rx="2.5" fill="#161b22" /><rect x="522" y="156" width="11" height="11" rx="2.5" fill="#161b22" /><rect x="522" y="172" width="11" height="11" rx="2.5" fill="#161b22" /><rect x="522" y="188" width="11" height="11" rx="2.5" fill="#161b22" /><rect x="538" y="92" width="11" height="11" rx="2.5" fill="#161b22" /><rect x="538" y="108" width="11" height="11" rx="2.5" fill="#161b22" /><rect x="538" y="124" width="11" height="11" rx="2.5" fill="#161b22" /><rect x="538" y="140" width="11" height="11" rx="2.5" fill="#161b22" /><rect x="538" y="156" width="11" height="11" rx="2.5" fill="#161b22" /><rect x="538" y="172" width="11" height="11" rx="2.5" fill="#161b22" /><rect x="538" y="188" width="11" height="11" rx="2.5" fill="#161b22" /><rect x="554" y="92" width="11" height="11" rx="2.5" fill="#161b22" /><rect x="554" y="108" width="11" height="11" rx="2.5" fill="#161b22" /><rect x="554" y="124" width="11" height="11" rx="2.5" fill="#161b22" /><rect x="554" y="140" width="11" height="11" rx="2.5" fill="#161b22" /><rect x="554" y="156" width="11" height="11" rx="2.5" fill="#161b22" /><rect x="554" y="172" width="11" height="11" rx="2.5" fill="#161b22" /><rect x="554" y="188" width="11" height="11" rx="2.5" fill="#161b22" /><rect x="570" y="92" width="11" height="11" rx="2.5" fill="#161b22" /><rect x="570" y="108" width="11" height="11" rx="2.5" fill="#161b22" /><rect x="570" y="124" width="11" height="11" rx="2.5" fill="#161b22" /><rect x="570" y="140" width="11" height="11" rx="2.5" fill="#161b22" /><rect x="570" y="156" width="11" height="11" rx="2.5" fill="#161b22" /><rect x="570" y="172" width="11" height="11" rx="2.5" fill="#161b22" /><rect x="570" y="188" width="11" height="11" rx="2.5" fill="#161b22" /><rect x="586" y="92" width="11" height="11" rx="2.5" fill="#161b22" /><rect x="586" y="108" width="11" height="11" rx="2.5" fill="#161b22" /><rect x="586" y="124" width="11" height="11" rx="2.5" fill="#161b22" /><rect x="586" y="140" width="11" height="11" rx="2.5" fill="#161b22" /><rect x="586" y="156" width="11" height="11" rx="2.5" fill="#161b22" /><rect x="586" y="172" width="11" height="11" rx="2.5" fill="#161b22" /><rect x="586" y="188" width="11" height="11" rx="2.5" fill="#161b22" /><rect x="602" y="92" width="11" height="11" rx="2.5" fill="#161b22" /><rect x="602" y="108" width="11" height="11" rx="2.5" fill="#161b22" /><rect x="602" y="124" width="11" height="11" rx="2.5" fill="#161b22" /><rect x="602" y="140" width="11" height="11" rx="2.5" fill="#161b22" /><rect x="602" y="156" width="11" height="11" rx="2.5" fill="#161b22" /><rect x="602" y="172" width="11" height="11" rx="2.5" fill="#161b22" /><rect x="602" y="188" width="11" height="11" rx="2.5" fill="#161b22" /><rect x="618" y="92" width="11" height="11" rx="2.5" fill="#161b22" /><rect x="618" y="108" width="11" height="11" rx="2.5" fill="#161b22" /><rect x="618" y="124" width="11" height="11" rx="2.5" fill="#161b22" /><rect x="618" y="140" width="11" height="11" rx="2.5" fill="#161b22" /><rect x="618" y="156" width="11" height="11" rx="2.5" fill="#161b22" /><rect x="618" y="172" width="11" height="11" rx="2.5" fill="#161b22" /><rect x="618" y="188" width="11" height="11" rx="2.5" fill="#161b22" /><rect x="634" y="92" width="11" height="11" rx="2.5" fill="#161b22" /><rect x="634" y="108" width="11" height="11" rx="2.5" fill="#161b22" /><rect x="634" y="124" width="11" height="11" rx="2.5" fill="#161b22" /><rect x="634" y="140" width="11" height="11" rx="2.5" fill="#161b22" /><rect x="634" y="156" width="11" height="11" rx="2.5" fill="#161b22" /><rect x="634" y="172" width="11" height="11" rx="2.5" fill="#161b22" /><rect x="634" y="188" width="11" height="11" rx="2.5" fill="#161b22" /><rect x="650" y="92" width="11" height="11" rx="2.5" fill="#161b22" /><rect x="650" y="108" width="11" height="11" rx="2.5" fill="#161b22" /><rect x="650" y="124" width="11" height="11" rx="2.5" fill="#161b22" /><rect x="650" y="140" width="11" height="11" rx="2.5" fill="#161b22" /><rect x="650" y="156" width="11" height="11" rx="2.5" fill="#161b22" /><rect x="650" y="172" width="11" height="11" rx="2.5" fill="#161b22" /><rect x="650" y="188" width="11" height="11" rx="2.5" fill="#161b22" /><rect x="666" y="92" width="11" height="11" rx="2.5" fill="#161b22" /><rect x="666" y="108" width="11" height="11" rx="2.5" fill="#0e4429" /><rect x="666" y="124" width="11" height="11" rx="2.5" fill="#161b22" /><rect x="666" y="140" width="11" height="11" rx="2.5" fill="#161b22" /><rect x="666" y="156" width="11" height="11" rx="2.5" fill="#161b22" /><rect x="666" y="172" width="11" height="11" rx="2.5" fill="#161b22" /><rect x="666" y="188" width="11" height="11" rx="2.5" fill="#161b22" /><rect x="682" y="92" width="11" height="11" rx="2.5" fill="#161b22" /><rect x="682" y="108" width="11" height="11" rx="2.5" fill="#161b22" /><rect x="682" y="124" width="11" height="11" rx="2.5" fill="#161b22" /><rect x="682" y="140" width="11" height="11" rx="2.5" fill="#161b22" /><rect x="682" y="156" width="11" height="11" rx="2.5" fill="#161b22" /><rect x="682" y="172" width="11" height="11" rx="2.5" fill="#161b22" /><rect x="682" y="188" width="11" height="11" rx="2.5" fill="#0e4429" /><rect x="698" y="92" width="11" height="11" rx="2.5" fill="#161b22" /><rect x="698" y="108" width="11" height="11" rx="2.5" fill="#161b22" /><rect x="698" y="124" width="11" height="11" rx="2.5" fill="#161b22" /><rect x="698" y="140" width="11" height="11" rx="2.5" fill="#161b22" /><rect x="698" y="156" width="11" height="11" rx="2.5" fill="#161b22" /><rect x="698" y="172" width="11" height="11" rx="2.5" fill="#161b22" /><rect x="698" y="188" width="11" height="11" rx="2.5" fill="#161b22" /><rect x="714" y="92" width="11" height="11" rx="2.5" fill="#161b22" /><rect x="714" y="108" width="11" height="11" rx="2.5" fill="#161b22" /><rect x="714" y="124" width="11" height="11" rx="2.5" fill="#161b22" /><rect x="714" y="140" width="11" height="11" rx="2.5" fill="#161b22" /><rect x="714" y="156" width="11" height="11" rx="2.5" fill="#161b22" /><rect x="714" y="172" width="11" height="11" rx="2.5" fill="#161b22" /><rect x="714" y="188" width="11" height="11" rx="2.5" fill="#161b22" /><rect x="730" y="92" width="11" height="11" rx="2.5" fill="#161b22" /><rect x="730" y="108" width="11" height="11" rx="2.5" fill="#161b22" /><rect x="730" y="124" width="11" height="11" rx="2.5" fill="#161b22" /><rect x="730" y="140" width="11" height="11" rx="2.5" fill="#161b22" /><rect x="730" y="156" width="11" height="11" rx="2.5" fill="#161b22" /><rect x="730" y="172" width="11" height="11" rx="2.5" fill="#161b22" /><rect x="730" y="188" width="11" height="11" rx="2.5" fill="#161b22" /><rect x="746" y="92" width="11" height="11" rx="2.5" fill="#161b22" /><rect x="746" y="108" width="11" height="11" rx="2.5" fill="#161b22" /><rect x="746" y="124" width="11" height="11" rx="2.5" fill="#161b22" /><rect x="746" y="140" width="11" height="11" rx="2.5" fill="#161b22" /><rect x="746" y="156" width="11" height="11" rx="2.5" fill="#161b22" /><rect x="746" y="172" width="11" height="11" rx="2.5" fill="#0e4429" /><rect x="746" y="188" width="11" height="11" rx="2.5" fill="#161b22" /><rect x="762" y="92" width="11" height="11" rx="2.5" fill="#161b22" /><rect x="762" y="108" width="11" height="11" rx="2.5" fill="#161b22" /><rect x="762" y="124" width="11" height="11" rx="2.5" fill="#161b22" /><rect x="762" y="140" width="11" height="11" rx="2.5" fill="#0e4429" /><rect x="762" y="156" width="11" height="11" rx="2.5" fill="#161b22" /><rect x="762" y="172" width="11" height="11" rx="2.5" fill="#161b22" /><rect x="762" y="188" width="11" height="11" rx="2.5" fill="#161b22" /><rect x="778" y="92" width="11" height="11" rx="2.5" fill="#161b22" /><rect x="778" y="108" width="11" height="11" rx="2.5" fill="#161b22" /><rect x="778" y="124" width="11" height="11" rx="2.5" fill="#161b22" /><rect x="778" y="140" width="11" height="11" rx="2.5" fill="#161b22" /><rect x="778" y="156" width="11" height="11" rx="2.5" fill="#161b22" /><rect x="778" y="172" width="11" height="11" rx="2.5" fill="#161b22" /><rect x="778" y="188" width="11" height="11" rx="2.5" fill="#161b22" /><rect x="794" y="92" width="11" height="11" rx="2.5" fill="#161b22" /><rect x="794" y="108" width="11" height="11" rx="2.5" fill="#161b22" /><rect x="794" y="124" width="11" height="11" rx="2.5" fill="#161b22" /><rect x="794" y="140" width="11" height="11" rx="2.5" fill="#161b22" /><rect x="794" y="156" width="11" height="11" rx="2.5" fill="#161b22" /><rect x="794" y="172" width="11" height="11" rx="2.5" fill="#161b22" /><rect x="794" y="188" width="11" height="11" rx="2.5" fill="#161b22" /><rect x="810" y="92" width="11" height="11" rx="2.5" fill="#161b22" /><rect x="810" y="108" width="11" height="11" rx="2.5" fill="#161b22" /><rect x="810" y="124" width="11" height="11" rx="2.5" fill="#161b22" /><rect x="810" y="140" width="11" height="11" rx="2.5" fill="#161b22" /><rect x="810" y="156" width="11" height="11" rx="2.5" fill="#161b22" /><rect x="810" y="172" width="11" height="11" rx="2.5" fill="#161b22" /><rect x="810" y="188" width="11" height="11" rx="2.5" fill="#161b22" /><rect x="826" y="92" width="11" height="11" rx="2.5" fill="#0e4429" /><rect x="826" y="108" width="11" height="11" rx="2.5" fill="#0e4429" /><rect x="826" y="124" width="11" height="11" rx="2.5" fill="#0e4429" /><rect x="826" y="140" width="11" height="11" rx="2.5" fill="#161b22" /><rect x="826" y="156" width="11" height="11" rx="2.5" fill="#161b22" /><rect x="826" y="172" width="11" height="11" rx="2.5" fill="#161b22" /><rect x="826" y="188" width="11" height="11" rx="2.5" fill="#161b22" /><rect x="842" y="92" width="11" height="11" rx="2.5" fill="#161b22" /><rect x="842" y="108" width="11" height="11" rx="2.5" fill="#161b22" /><rect x="842" y="124" width="11" height="11" rx="2.5" fill="#161b22" /><rect x="842" y="140" width="11" height="11" rx="2.5" fill="#161b22" /><rect x="842" y="156" width="11" height="11" rx="2.5" fill="#0e4429" /><rect x="842" y="172" width="11" height="11" rx="2.5" fill="#161b22" /><rect x="842" y="188" width="11" height="11" rx="2.5" fill="#161b22" /><rect x="858" y="92" width="11" height="11" rx="2.5" fill="#0e4429" /><rect x="858" y="108" width="11" height="11" rx="2.5" fill="#0e4429" /><rect x="858" y="124" width="11" height="11" rx="2.5" fill="#0e4429" /><rect x="858" y="140" width="11" height="11" rx="2.5" fill="#161b22" /><rect x="858" y="156" width="11" height="11" rx="2.5" fill="#39d353" /><rect x="858" y="172" width="11" height="11" rx="2.5" fill="#0e4429" /><rect x="858" y="188" width="11" height="11" rx="2.5" fill="#0e4429" /><rect x="874" y="92" width="11" height="11" rx="2.5" fill="#006d32" />
<path d="M 47.5 250.0 L 63.5 250.0 L 79.5 250.0 L 95.5 250.0 L 111.5 250.0 L 127.5 250.0 L 143.5 250.0 L 159.5 250.0 L 175.5 250.0 L 191.5 250.0 L 207.5 250.0 L 223.5 250.0 L 239.5 250.0 L 255.5 250.0 L 271.5 250.0 L 287.5 250.0 L 303.5 250.0 L 319.5 250.0 L 335.5 250.0 L 351.5 250.0 L 367.5 250.0 L 383.5 250.0 L 399.5 250.0 L 415.5 250.0 L 431.5 250.0 L 447.5 250.0 L 463.5 250.0 L 479.5 250.0 L 495.5 250.0 L 511.5 250.0 L 527.5 250.0 L 543.5 250.0 L 559.5 250.0 L 575.5 250.0 L 591.5 250.0 L 607.5 250.0 L 623.5 250.0 L 639.5 250.0 L 655.5 250.0 L 671.5 249.5 L 687.5 249.5 L 703.5 250.0 L 719.5 250.0 L 735.5 250.0 L 751.5 249.5 L 767.5 249.5 L 783.5 250.0 L 799.5 250.0 L 815.5 250.0 L 831.5 248.1 L 847.5 249.5 L 863.5 192.0 L 879.5 239.5" class="wave"/>
<circle r="4" class="dot">
  <animateMotion dur="6s" repeatCount="indefinite" path="M 47.5 250.0 L 63.5 250.0 L 79.5 250.0 L 95.5 250.0 L 111.5 250.0 L 127.5 250.0 L 143.5 250.0 L 159.5 250.0 L 175.5 250.0 L 191.5 250.0 L 207.5 250.0 L 223.5 250.0 L 239.5 250.0 L 255.5 250.0 L 271.5 250.0 L 287.5 250.0 L 303.5 250.0 L 319.5 250.0 L 335.5 250.0 L 351.5 250.0 L 367.5 250.0 L 383.5 250.0 L 399.5 250.0 L 415.5 250.0 L 431.5 250.0 L 447.5 250.0 L 463.5 250.0 L 479.5 250.0 L 495.5 250.0 L 511.5 250.0 L 527.5 250.0 L 543.5 250.0 L 559.5 250.0 L 575.5 250.0 L 591.5 250.0 L 607.5 250.0 L 623.5 250.0 L 639.5 250.0 L 655.5 250.0 L 671.5 249.5 L 687.5 249.5 L 703.5 250.0 L 719.5 250.0 L 735.5 250.0 L 751.5 249.5 L 767.5 249.5 L 783.5 250.0 L 799.5 250.0 L 815.5 250.0 L 831.5 248.1 L 847.5 249.5 L 863.5 192.0 L 879.5 239.5" />
</circle>
<text x="36" y="305" class="stat">build → learn → experiment → improve</text>
<text x="790" y="305" class="note">datnt-numenor</text>
</svg>